<?xml version="1.0" encoding="utf-8"?>
<!-- Generator: Adobe Illustrator 28.1.0, SVG Export Plug-In . SVG Version: 6.00 Build 0)  -->
<svg version="1.1" id="Layer_1" xmlns="http://www.w3.org/2000/svg" xmlns:xlink="http://www.w3.org/1999/xlink" x="0px" y="0px"
	 viewBox="0 0 169.9 70" style="enable-background:new 0 0 169.9 70;" xml:space="preserve">
<style type="text/css">
	.st0{fill:#FFFFFF;}
	.st1{fill:none;}
	.st2{fill:#E8DBFF;}
	.st3{fill:#5501D8;}
	.st4{fill:none;stroke:#5501D8;stroke-linecap:round;stroke-linejoin:round;stroke-miterlimit:10;stroke-dasharray:0,0;}
	.st5{fill:none;stroke:#5501D8;stroke-linecap:round;stroke-linejoin:round;stroke-miterlimit:10;stroke-dasharray:3.71,3.71;}
</style>
<g id="Layer_2_00000003103412615135647180000014715692255242436539_">
	<g id="レイヤー_1">
		<path class="st0" d="M121.2,69.3h27.1c1,0,1.9-0.8,1.9-1.9v-36c0-1,0.6-1.3,1.3-0.5l2.8,2.8c0.7,0.7,1.9,0.7,2.6,0l11.8-11.8
			c0.7-0.7,0.7-1.9,0-2.6L151.4,2.1c-0.9-0.8-2-1.3-3.2-1.3h-41.2c-1.2,0.1-2.3,0.5-3.2,1.3L86.7,19.3c-0.7,0.7-0.7,1.9,0,2.6
			c0,0,0,0,0,0l11.8,11.8c0.7,0.7,1.9,0.7,2.6,0l2.8-2.8c0.7-0.7,1.3-0.5,1.3,0.5v36c0,1,0.8,1.9,1.9,1.9h6.2"/>
		<path d="M148.3,70h-27.1c-0.4,0-0.7-0.3-0.8-0.7c0-0.4,0.3-0.7,0.8-0.8h27.1c0.6,0,1.1-0.5,1.1-1.1l0,0v-36c0-1.1,0.5-1.5,0.9-1.6
			c0.6-0.2,1.3,0,1.7,0.5l2.8,2.8c0.4,0.4,1.1,0.4,1.6,0l11.8-11.8c0.4-0.4,0.4-1.1,0-1.6c0,0,0,0,0,0L150.9,2.6
			c-0.7-0.6-1.7-1-2.6-1.1h-41.2c-1,0.1-1.9,0.4-2.7,1.1L87.2,19.8c-0.4,0.4-0.4,1.1,0,1.6L99,33.2c0.4,0.4,1.1,0.4,1.6,0l2.8-2.8
			c0.4-0.5,1.1-0.8,1.7-0.5c0.3,0.1,0.8,0.5,0.8,1.6v36c0,0.6,0.5,1.1,1.1,1.1h6.2c0.4,0,0.7,0.3,0.7,0.8c0,0.4-0.3,0.7-0.7,0.7
			h-6.2c-1.4,0-2.6-1.2-2.6-2.6v-36l0,0l-2.8,2.8c-1,1-2.6,1-3.7,0L86.2,22.4c-1-1-1-2.7,0-3.7l17.2-17.2c1-0.9,2.3-1.5,3.7-1.5
			h41.2c1.4,0.1,2.7,0.6,3.7,1.5l17.2,17.2c1,1,1,2.7,0,3.7c0,0,0,0,0,0l-11.8,11.8c-1,1-2.6,1-3.7,0l-2.8-2.8l0,0v36
			C150.9,68.9,149.7,70,148.3,70C148.3,70,148.3,70,148.3,70z"/>
		<path class="st0" d="M110.9,48.1c0,0,4.8,5.8,5.8,12.8"/>
		<path d="M116.8,61.6c-0.4,0-0.7-0.2-0.8-0.6c-0.9-6.7-5.6-12.4-5.7-12.4c-0.2-0.3-0.2-0.7,0.1-1c0.3-0.2,0.7-0.2,1,0.1
			c0.2,0.2,5,6,6,13.2C117.5,61.2,117.2,61.6,116.8,61.6C116.8,61.7,116.8,61.7,116.8,61.6L116.8,61.6z"/>
		<line class="st1" x1="116.9" y1="63.3" x2="116.9" y2="64.1"/>
		<path d="M116.9,64.8c-0.4,0-0.7-0.3-0.7-0.7v-0.8c0-0.4,0.3-0.7,0.7-0.7c0.4,0,0.7,0.3,0.7,0.7v0.8
			C117.7,64.5,117.3,64.8,116.9,64.8L116.9,64.8z"/>
		<path class="st0" d="M35.8,69.3h27.1c1,0,1.9-0.8,1.9-1.9v-36c0-1,0.6-1.3,1.3-0.5l2.8,2.8c0.7,0.7,1.9,0.7,2.6,0l11.8-11.8
			c0.7-0.7,0.7-1.9,0-2.6L66,2.1c-0.9-0.8-2-1.2-3.1-1.3H21.7c-1.2,0.1-2.3,0.5-3.2,1.3L1.3,19.3c-0.7,0.7-0.7,1.9,0,2.6
			c0,0,0,0,0,0l11.8,11.8c0.7,0.7,1.9,0.7,2.6,0l2.8-2.8c0.7-0.7,1.3-0.5,1.3,0.5v36c0,1,0.8,1.9,1.9,1.9h6.2"/>
		<path d="M62.9,70H35.8c-0.4,0-0.7-0.3-0.7-0.7c0-0.4,0.3-0.7,0.7-0.8h27.1c0.6,0,1.1-0.5,1.1-1.1c0,0,0,0,0,0v-36
			c0-1.1,0.5-1.5,0.8-1.6c0.6-0.2,1.3,0,1.7,0.5l2.8,2.8c0.4,0.4,1.1,0.4,1.6,0l11.8-11.8c0.4-0.4,0.4-1.1,0-1.6c0,0,0,0,0,0
			L65.5,2.6c-0.7-0.6-1.7-1-2.6-1.1H21.7c-1,0.1-1.9,0.4-2.7,1.1L1.8,19.8c-0.4,0.4-0.4,1.1,0,1.6l11.8,11.8c0.4,0.4,1.1,0.4,1.6,0
			l2.8-2.8c0.4-0.5,1.1-0.8,1.7-0.5c0.3,0.1,0.8,0.5,0.8,1.6v36c0,0.6,0.5,1.1,1.1,1.1h6.2c0.4,0,0.7,0.3,0.7,0.8
			c0,0.4-0.3,0.7-0.7,0.7h-6.2c-1.4,0-2.6-1.2-2.6-2.6v-36l0,0l-2.8,2.8c-1,1-2.6,1-3.7,0L0.8,22.4c-1-1-1-2.7,0-3.7L18,1.5
			c1-0.9,2.3-1.5,3.7-1.5h41.2c1.4,0.1,2.7,0.6,3.7,1.5l17.2,17.2c1,1,1,2.7,0,3.7c0,0,0,0,0,0L72,34.2c-1,1-2.6,1-3.7,0l-2.8-2.8
			l0,0v36C65.5,68.9,64.3,70,62.9,70C62.9,70,62.9,70,62.9,70z"/>
		<path class="st0" d="M59.4,48.1c0,0-4.8,5.8-5.8,12.8"/>
		<path d="M53.6,61.6h-0.1c-0.4-0.1-0.7-0.4-0.6-0.8c1-7.1,5.8-12.9,6-13.2c0.3-0.3,0.7-0.3,1-0.1c0.3,0.3,0.3,0.7,0.1,1
			c0,0-4.7,5.7-5.7,12.4C54.2,61.3,53.9,61.6,53.6,61.6z"/>
		<line class="st1" x1="53.4" y1="63.3" x2="53.4" y2="64.1"/>
		<path d="M53.4,64.8c-0.4,0-0.7-0.3-0.8-0.7v-0.8c0-0.4,0.3-0.7,0.8-0.7c0.4,0,0.7,0.3,0.7,0.7v0v0.8
			C54.1,64.5,53.8,64.8,53.4,64.8z"/>
		<path d="M42.3,12.4c-4.2,0-7.2-1.9-8.3-5.2c-0.1-0.3-0.2-0.7-0.3-1c-0.1-0.6-0.2-1.2-0.2-1.8c0.1-0.4,0.5-0.7,0.9-0.6
			C34.7,3.9,35,4.2,35,4.5c0,0.5,0.1,1,0.2,1.5c0.1,0.3,0.1,0.5,0.2,0.8c0.9,2.6,3.4,4.2,6.9,4.2c4.3,0,7.2-2.7,7.2-6.5
			c0-0.4,0.3-0.7,0.8-0.7c0.4,0,0.7,0.3,0.7,0.7C51,9.1,47.3,12.4,42.3,12.4z"/>
		<rect x="113.7" y="5.8" class="st2" width="27.9" height="27.9"/>
		<path class="st3" d="M141.6,34.1h-1.5c-0.3,0-0.5-0.2-0.5-0.5c0,0,0,0,0,0c0-0.2,0.2-0.5,0.4-0.5c0,0,0,0,0,0h1.1v-1.1
			c0-0.2,0.2-0.5,0.4-0.5c0,0,0,0,0,0c0.3,0,0.5,0.2,0.5,0.5c0,0,0,0,0,0v1.5C142.1,33.9,141.9,34.1,141.6,34.1z"/>
		<path class="st3" d="M137.3,34.1h-2.8c-0.3,0-0.5-0.2-0.5-0.5c0,0,0,0,0,0c0-0.2,0.2-0.5,0.4-0.5c0,0,0,0,0,0h2.8
			c0.2,0,0.5,0.2,0.5,0.4c0,0,0,0,0,0C137.8,33.9,137.6,34.1,137.3,34.1L137.3,34.1z M131.8,34.1h-2.8c-0.3,0-0.5-0.2-0.5-0.5
			c0,0,0,0,0,0c0-0.2,0.2-0.5,0.4-0.5c0,0,0,0,0,0h2.8c0.2,0,0.5,0.2,0.5,0.4c0,0,0,0,0,0C132.3,33.9,132.1,34.1,131.8,34.1
			L131.8,34.1z M126.3,34.1h-2.8c-0.3,0-0.5-0.2-0.5-0.5c0-0.3,0.2-0.5,0.5-0.5h2.8c0.3,0,0.5,0.2,0.5,0.4c0,0,0,0,0,0
			C126.8,33.9,126.5,34.1,126.3,34.1z M120.8,34.1H118c-0.3,0-0.5-0.2-0.5-0.5c0-0.3,0.2-0.5,0.5-0.5h2.8c0.3,0,0.5,0.2,0.5,0.5
			C121.2,33.9,121,34.1,120.8,34.1z"/>
		<path class="st3" d="M115.3,34.1h-1.5c-0.3,0-0.5-0.2-0.5-0.5v-1.5c0-0.2,0.2-0.5,0.4-0.5c0,0,0,0,0,0c0.3,0,0.5,0.2,0.5,0.5v1.1
			h1.1c0.3,0,0.5,0.2,0.5,0.5C115.7,33.9,115.5,34.1,115.3,34.1z"/>
		<path class="st3" d="M113.7,29.8c-0.2,0-0.5-0.2-0.5-0.4c0,0,0,0,0,0v-2.8c0-0.2,0.2-0.5,0.4-0.5c0,0,0,0,0,0
			c0.3,0,0.5,0.2,0.5,0.5v2.8C114.2,29.6,114,29.8,113.7,29.8z M113.7,24.3c-0.2,0-0.5-0.2-0.5-0.4c0,0,0,0,0,0v-2.8
			c0-0.2,0.2-0.5,0.4-0.5c0,0,0,0,0,0c0.3,0,0.5,0.2,0.5,0.5v2.8C114.2,24.1,114,24.3,113.7,24.3z M113.7,18.8
			c-0.2,0-0.5-0.2-0.5-0.4c0,0,0,0,0,0v-2.8c0-0.2,0.2-0.5,0.4-0.5c0,0,0,0,0,0c0.3,0,0.5,0.2,0.5,0.5v2.8
			C114.2,18.6,114,18.8,113.7,18.8C113.7,18.8,113.7,18.8,113.7,18.8z M113.7,13.3c-0.3,0-0.5-0.2-0.5-0.5c0,0,0,0,0,0v-2.7
			c0-0.2,0.2-0.5,0.4-0.5c0,0,0,0,0,0c0.3,0,0.5,0.2,0.5,0.5v2.8C114.2,13.1,114,13.3,113.7,13.3z"/>
		<path class="st3" d="M113.7,7.8c-0.3,0-0.5-0.2-0.5-0.5c0,0,0,0,0,0V5.8c0-0.3,0.2-0.5,0.4-0.5c0,0,0,0,0,0h1.5
			c0.3,0,0.4,0.3,0.4,0.5c0,0.2-0.2,0.4-0.4,0.4h-1.1v1.1C114.2,7.6,114,7.8,113.7,7.8z"/>
		<path class="st3" d="M137.3,6.2h-2.8c-0.3,0-0.4-0.3-0.4-0.5c0-0.2,0.2-0.4,0.4-0.4h2.8c0.3,0,0.4,0.3,0.4,0.5
			C137.7,6,137.5,6.2,137.3,6.2z M131.8,6.2h-2.8c-0.3,0-0.4-0.3-0.4-0.5c0-0.2,0.2-0.4,0.4-0.4h2.8c0.3,0,0.4,0.3,0.4,0.5
			C132.2,6,132,6.2,131.8,6.2z M126.3,6.2h-2.8c-0.3,0-0.4-0.3-0.4-0.5c0-0.2,0.2-0.4,0.4-0.4h2.8c0.3,0,0.5,0.1,0.5,0.4
			c0,0.3-0.1,0.5-0.4,0.5C126.4,6.2,126.3,6.2,126.3,6.2z M120.8,6.2H118c-0.3,0-0.4-0.3-0.4-0.5c0-0.2,0.2-0.4,0.4-0.4h2.8
			c0.3,0,0.4,0.3,0.4,0.5C121.1,6,121,6.2,120.8,6.2L120.8,6.2z"/>
		<path class="st3" d="M141.6,7.8c-0.3,0-0.5-0.2-0.5-0.5c0,0,0,0,0,0V6.2h-1.1c-0.3,0-0.4-0.3-0.4-0.5c0-0.2,0.2-0.4,0.4-0.4h1.5
			c0.3,0,0.5,0.2,0.5,0.5v1.5C142.1,7.6,141.9,7.8,141.6,7.8z"/>
		<path class="st3" d="M141.6,29.8c-0.2,0-0.5-0.2-0.5-0.4c0,0,0,0,0,0v-2.8c0-0.2,0.2-0.5,0.4-0.5c0,0,0,0,0,0
			c0.3,0,0.5,0.2,0.5,0.5c0,0,0,0,0,0v2.8C142.1,29.6,141.9,29.8,141.6,29.8L141.6,29.8z M141.6,24.3c-0.2,0-0.5-0.2-0.5-0.4
			c0,0,0,0,0,0v-2.8c0-0.2,0.2-0.5,0.4-0.5c0,0,0,0,0,0c0.3,0,0.5,0.2,0.5,0.5c0,0,0,0,0,0v2.8C142.1,24.1,141.9,24.3,141.6,24.3
			L141.6,24.3z M141.6,18.8c-0.2,0-0.5-0.2-0.5-0.4c0,0,0,0,0,0v-2.8c0-0.2,0.2-0.5,0.4-0.5c0,0,0,0,0,0c0.3,0,0.5,0.2,0.5,0.5
			c0,0,0,0,0,0v2.8C142.1,18.6,141.9,18.8,141.6,18.8C141.6,18.8,141.6,18.8,141.6,18.8z M141.6,13.3c-0.3,0-0.5-0.2-0.5-0.5
			c0,0,0,0,0,0v-2.7c0-0.2,0.2-0.5,0.4-0.5c0,0,0,0,0,0c0.3,0,0.5,0.2,0.5,0.5c0,0,0,0,0,0v2.8C142.1,13.1,141.9,13.3,141.6,13.3z"
			/>
		<rect x="47.5" y="18.7" class="st2" width="14.1" height="14.1"/>
		<polyline class="st4" points="61.7,31.4 61.7,32.9 60.2,32.9 		"/>
		<line class="st5" x1="56.5" y1="32.9" x2="50.9" y2="32.9"/>
		<polyline class="st4" points="49,32.9 47.5,32.9 47.5,31.4 		"/>
		<line class="st5" x1="47.5" y1="27.7" x2="47.5" y2="22.1"/>
		<polyline class="st4" points="47.5,20.2 47.5,18.7 49,18.7 		"/>
		<line class="st5" x1="52.8" y1="18.7" x2="58.3" y2="18.7"/>
		<polyline class="st4" points="60.2,18.7 61.7,18.7 61.7,20.2 		"/>
		<line class="st5" x1="61.7" y1="24" x2="61.7" y2="29.5"/>
	</g>
</g>
</svg>
